<svg xmlns="http://www.w3.org/2000/svg" xmlns:svg="http://www.w3.org/2000/svg" id="svg2985" width="64" height="64" version="1.1"><metadata id="metadata2990"/><g id="layer1"><flowRoot id="flowRoot3813" xml:space="preserve" style="fill:#000;stroke:none;stroke-opacity:1;stroke-width:1px;stroke-linejoin:miter;stroke-linecap:butt;fill-opacity:1;font-family:Alte DIN 1451 Mittelschrift;font-style:normal;font-weight:400;font-size:48px;line-height:125%;letter-spacing:0;word-spacing:0;-inkscape-font-specification:Alte DIN 1451 Mittelschrift;font-stretch:normal;font-variant:normal"><flowRegion id="flowRegion3815"><rect id="rect3817" width="45.75" height="50.25" x="13.25" y="8.5"/></flowRegion><flowPara id="flowPara3819"/></flowRoot><path style="color:#000;fill:none;stroke:#000;stroke-width:5.83982658;stroke-linecap:butt;stroke-linejoin:miter;stroke-miterlimit:4;stroke-opacity:1;stroke-dasharray:none;stroke-dashoffset:0;marker:none;visibility:visible;display:inline;overflow:visible;enable-background:accumulate" id="path3782" d="m 49.497477,30.368233 a 21.522564,21.522564 0 1 1 -43.0451283,0 21.522564,21.522564 0 1 1 43.0451283,0 z" transform="matrix(0.72101672,0,0,1.0167046,11.82962,1.1244781)"/><path style="fill:none;stroke:#000;stroke-width:5;stroke-linecap:round;stroke-linejoin:miter;stroke-miterlimit:4;stroke-opacity:1;stroke-dasharray:none" id="path3760" d="m 8.671148,10.671148 8.827491,8.827491"/><path id="path3762" d="m 20.647175,48.9076 -9.46771,9.168889" style="fill:none;stroke:#000;stroke-width:5;stroke-linecap:round;stroke-linejoin:miter;stroke-miterlimit:4;stroke-opacity:1;stroke-dasharray:none"/><path style="fill:none;stroke:#000;stroke-width:5;stroke-linecap:round;stroke-linejoin:miter;stroke-miterlimit:4;stroke-opacity:1;stroke-dasharray:none" id="path3764" d="m 14.461708,34 -9.4252855,-10e-7"/><path style="fill:none;stroke:#000;stroke-width:5;stroke-linecap:round;stroke-linejoin:miter;stroke-miterlimit:4;stroke-opacity:1;stroke-dasharray:none" id="path3766" d="M 55.317258,9.9904359 45.240023,19.749612"/><path id="path3768" d="m 43.496157,49.385244 8.827491,8.827491" style="fill:none;stroke:#000;stroke-width:5;stroke-linecap:round;stroke-linejoin:miter;stroke-miterlimit:4;stroke-opacity:1;stroke-dasharray:none"/><path id="path3770" d="m 59.516657,33.823223 -10.30881,-10e-7" style="fill:none;stroke:#000;stroke-width:5;stroke-linecap:round;stroke-linejoin:miter;stroke-miterlimit:4;stroke-opacity:1;stroke-dasharray:none"/><path style="fill:none;stroke:#000;stroke-width:5;stroke-linecap:round;stroke-linejoin:miter;stroke-miterlimit:4;stroke-opacity:1;stroke-dasharray:none" id="path3772" d="M 32,52.273728 32,28.891487"/><path style="fill:#000;fill-opacity:1;fill-rule:evenodd;stroke:none" id="path3774" d="m 29.875,21.125 a 1.875,1.875 0 1 1 -3.75,0 1.875,1.875 0 1 1 3.75,0 z" transform="matrix(1.4666667,0,0,1.4666667,-15.609559,-12.901225)"/><path id="path3776" d="m 29.875,21.125 a 1.875,1.875 0 1 1 -3.75,0 1.875,1.875 0 1 1 3.75,0 z" transform="matrix(1.4666667,0,0,1.4666667,-2.5237738,-12.901225)" style="fill:#000;fill-opacity:1;fill-rule:evenodd;stroke:none"/></g></svg>