<svg xmlns="http://www.w3.org/2000/svg" xmlns:svg="http://www.w3.org/2000/svg" id="svg2985" width="64" height="64" version="1.1"><metadata id="metadata2990"/><g id="layer1"><flowRoot id="flowRoot3813" xml:space="preserve" style="fill:#000;stroke:none;stroke-opacity:1;stroke-width:1px;stroke-linejoin:miter;stroke-linecap:butt;fill-opacity:1;font-family:Alte DIN 1451 Mittelschrift;font-style:normal;font-weight:400;font-size:48px;line-height:125%;letter-spacing:0;word-spacing:0;-inkscape-font-specification:Alte DIN 1451 Mittelschrift;font-stretch:normal;font-variant:normal"><flowRegion id="flowRegion3815"><rect id="rect3817" width="45.75" height="50.25" x="13.25" y="8.5"/></flowRegion><flowPara id="flowPara3819"/></flowRoot><g id="g3962" transform="matrix(0.04945382,0.99599324,0.55078225,-0.08942857,8.9390861,-11.842406)" style="stroke-width:6.7236985;stroke-miterlimit:4;stroke-dasharray:none"><path style="color:#000;fill:none;stroke:#000;stroke-width:5;stroke-linecap:butt;stroke-linejoin:miter;stroke-miterlimit:4;stroke-opacity:1;stroke-dasharray:none;stroke-dashoffset:0;marker:none;visibility:visible;display:inline;overflow:visible;enable-background:accumulate" id="path3779" d="m 60.722795,34.610874 a 25.765203,25.765203 0 1 1 -51.5304065,0 25.765203,25.765203 0 1 1 51.5304065,0 z" transform="matrix(-0.51613301,1.1695793,0.71622696,1.0589278,40.610812,-39.918847)"/><path id="path3781" d="m 60.722795,34.610874 a 25.765203,25.765203 0 1 1 -51.5304065,0 25.765203,25.765203 0 1 1 51.5304065,0 z" transform="matrix(-0.22452486,0.5087829,0.70878599,1.0479264,30.674432,-16.43823)" style="color:#000;fill:none;stroke:#000;stroke-width:8.73113728;stroke-linecap:butt;stroke-linejoin:miter;stroke-miterlimit:4;stroke-opacity:1;stroke-dasharray:none;stroke-dashoffset:0;marker:none;visibility:visible;display:inline;overflow:visible;enable-background:accumulate"/><path style="color:#000;fill:none;stroke:#000;stroke-width:7.66913414;stroke-linecap:butt;stroke-linejoin:miter;stroke-opacity:1;stroke-dashoffset:0;marker:none;visibility:visible;display:inline;overflow:visible;enable-background:accumulate" id="path3783" d="M 29.286236,59.48146 C 26.481895,70.534607 25.379558,79.842726 27.403043,82.834411 31.188772,88.431538 43.191529,72.724495 54.211952,47.751749 65.232375,22.779003 71.097254,-2.002776 67.311525,-7.599903 65.21843,-10.694504 60.613485,-7.276668 55.051496,0.61895624"/></g></g></svg>