<svg xmlns="http://www.w3.org/2000/svg" xmlns:svg="http://www.w3.org/2000/svg" xmlns:xlink="http://www.w3.org/1999/xlink" id="svg2985" width="64" height="64" version="1.1"><defs id="defs2987"><linearGradient id="linearGradient3773"><stop style="stop-color:#7d7d7d;stop-opacity:1" id="stop3775" offset="0"/><stop style="stop-color:#4b4b4b;stop-opacity:1" id="stop3777" offset="1"/></linearGradient><linearGradient id="linearGradient3788"><stop id="stop3790" offset="0" style="stop-color:#fff;stop-opacity:1"/><stop id="stop3792" offset="1" style="stop-color:#fff;stop-opacity:0"/></linearGradient><linearGradient id="linearGradient3813" x1="44.034" x2="31.806" y1="11.559" y2="49.18" gradientTransform="matrix(1.5876567,0,0,1.0616624,-18.805014,-12.862692)" gradientUnits="userSpaceOnUse" xlink:href="#linearGradient3788"/><linearGradient id="linearGradient3764" x1="44.034" x2="31.806" y1="11.559" y2="49.18" gradientTransform="matrix(1.5876567,0,0,1.0616624,-18.805014,-12.862692)" gradientUnits="userSpaceOnUse" xlink:href="#linearGradient3788"/><linearGradient id="linearGradient3781" x1="2.091" x2="61.909" y1="31.545" y2="31.545" gradientTransform="translate(-0.45454795,0.45454407)" gradientUnits="userSpaceOnUse" xlink:href="#linearGradient3773"/><linearGradient id="linearGradient3792" x1="2.091" x2="61.909" y1="31.545" y2="31.545" gradientTransform="translate(-0.45454795,0.45454407)" gradientUnits="userSpaceOnUse" xlink:href="#linearGradient3773"/><linearGradient id="linearGradient3844" x1="2.091" x2="61.909" y1="31.545" y2="31.545" gradientTransform="matrix(0,1,1,0,0.45454407,-1.98e-6)" gradientUnits="userSpaceOnUse" xlink:href="#linearGradient3773"/><filter id="filter3853" width="2.639" height="1.232" x="-.82" y="-.116"><feGaussianBlur id="feGaussianBlur3855" stdDeviation="1.835"/></filter><filter id="filter3857" width="2.639" height="1.232" x="-.82" y="-.116"><feGaussianBlur id="feGaussianBlur3859" stdDeviation="1.835"/></filter><filter id="filter3861" width="2.639" height="1.232" x="-.82" y="-.116"><feGaussianBlur id="feGaussianBlur3863" stdDeviation="1.835"/></filter><filter id="filter3910" width="3.423" height="1.342" x="-1.212" y="-.171"><feGaussianBlur id="feGaussianBlur3912" stdDeviation="2.713"/></filter><filter id="filter3914" width="3.423" height="1.342" x="-1.212" y="-.171"><feGaussianBlur id="feGaussianBlur3916" stdDeviation="2.713"/></filter><filter id="filter3918" width="3.423" height="1.342" x="-1.212" y="-.171"><feGaussianBlur id="feGaussianBlur3920" stdDeviation="2.713"/></filter></defs><metadata id="metadata2990"/><g id="g3783" transform="translate(0,0.45454597)"><rect id="rect3012" width="59.818" height="59.455" x="1.636" y="2.273" ry="11.455" transform="matrix(0,1,1,0,0,0)" style="fill:url(#linearGradient3792);fill-opacity:1;fill-rule:evenodd;stroke:none"/><rect style="fill:#fff;fill-opacity:1;fill-rule:evenodd;stroke:none;filter:url(#filter3918)" id="rect3808" width="5.374" height="38.028" x="14.313" y="12.531" ry="2.687"/><rect id="rect3814" width="5.374" height="38.028" x="29.313" y="12.531" ry="2.687" style="fill:#fff;fill-opacity:1;fill-rule:evenodd;stroke:none;filter:url(#filter3914)"/><rect style="fill:#fff;fill-opacity:1;fill-rule:evenodd;stroke:none;filter:url(#filter3910)" id="rect3816" width="5.374" height="38.028" x="44.313" y="12.531" ry="2.687"/><path style="fill:url(#linearGradient3844);fill-opacity:1;fill-rule:evenodd;stroke:none" id="rect3826" d="M 13.71875 2.09375 C 7.3729321 2.09375 2.28125 7.1854321 2.28125 13.53125 L 2.28125 31.84375 L 61.71875 31.84375 L 61.71875 13.53125 C 61.71875 7.1854321 56.627068 2.09375 50.28125 2.09375 L 13.71875 2.09375 z" transform="translate(0,-0.45454597)"/><path style="fill:#fff;fill-opacity:1;fill-rule:evenodd;stroke:none" id="rect3865" d="M 17 13 C 15.511535 13 14.3125 14.199035 14.3125 15.6875 L 14.3125 32.125 L 19.6875 32.125 L 19.6875 15.6875 C 19.6875 14.199035 18.488465 13 17 13 z" transform="translate(0,-0.45454597)"/><path id="path3901" d="m 32,12.545454 c -1.488465,0 -2.6875,1.199035 -2.6875,2.6875 l 0,16.4375 5.375,0 0,-16.4375 c 0,-1.488465 -1.199035,-2.6875 -2.6875,-2.6875 z" style="fill:#fff;fill-opacity:1;fill-rule:evenodd;stroke:none"/><path style="fill:#fff;fill-opacity:1;fill-rule:evenodd;stroke:none" id="path3903" d="m 46.987218,12.545454 c -1.488465,0 -2.6875,1.199035 -2.6875,2.6875 l 0,16.4375 5.375,0 0,-16.4375 c 0,-1.488465 -1.199035,-2.6875 -2.6875,-2.6875 z"/><path style="fill:none;stroke:#000;stroke-width:3.87639069999999997px;stroke-linecap:butt;stroke-linejoin:miter;stroke-opacity:1" id="path3871" d="m 8.344347,31.545454 47.311306,0"/></g></svg>