<svg xmlns="http://www.w3.org/2000/svg" xmlns:svg="http://www.w3.org/2000/svg" xmlns:xlink="http://www.w3.org/1999/xlink" id="svg2985" width="64" height="64" version="1.1"><defs id="defs2987"><linearGradient id="linearGradient3865"><stop id="stop3867" offset="0" style="stop-color:#cecece;stop-opacity:1"/><stop id="stop3869" offset="1" style="stop-color:#313131;stop-opacity:1"/></linearGradient><linearGradient id="linearGradient3773"><stop style="stop-color:#7d7d7d;stop-opacity:1" id="stop3775" offset="0"/><stop style="stop-color:#4b4b4b;stop-opacity:1" id="stop3777" offset="1"/></linearGradient><linearGradient id="linearGradient3788"><stop id="stop3790" offset="0" style="stop-color:#fff;stop-opacity:1"/><stop id="stop3792" offset="1" style="stop-color:#fff;stop-opacity:0"/></linearGradient><linearGradient id="linearGradient3813" x1="44.034" x2="31.806" y1="11.559" y2="49.18" gradientTransform="matrix(1.5876567,0,0,1.0616624,-18.805014,-12.862692)" gradientUnits="userSpaceOnUse" xlink:href="#linearGradient3788"/><linearGradient id="linearGradient3764" x1="44.034" x2="31.806" y1="11.559" y2="49.18" gradientTransform="matrix(1.5876567,0,0,1.0616624,-18.805014,-12.862692)" gradientUnits="userSpaceOnUse" xlink:href="#linearGradient3788"/><linearGradient id="linearGradient3781" x1="2.091" x2="61.909" y1="31.545" y2="31.545" gradientTransform="translate(-0.45454795,0.45454407)" gradientUnits="userSpaceOnUse" xlink:href="#linearGradient3773"/><linearGradient id="linearGradient3792" x1="2.091" x2="61.909" y1="31.545" y2="31.545" gradientTransform="translate(-0.45454795,0.45454407)" gradientUnits="userSpaceOnUse" xlink:href="#linearGradient3773"/><linearGradient id="linearGradient3815" x1="2.091" x2="61.909" y1="31.545" y2="31.545" gradientTransform="translate(-1.98e-6,0.45454407)" gradientUnits="userSpaceOnUse" xlink:href="#linearGradient3773"/><linearGradient id="linearGradient3819" x1="2.091" x2="61.909" y1="31.545" y2="31.545" gradientTransform="matrix(0.78348454,0,0,0.78348454,6.9284931,7.2846229)" gradientUnits="userSpaceOnUse" xlink:href="#linearGradient3773"/><linearGradient id="linearGradient3823" x1="2.091" x2="61.909" y1="31.545" y2="31.545" gradientTransform="matrix(0,1,1,0,0.45454407,-1.98e-6)" gradientUnits="userSpaceOnUse" xlink:href="#linearGradient3773"/><filter id="filter3836" width="1.241" height="1.239" x="-.12" y="-.12"><feGaussianBlur id="feGaussianBlur3838" stdDeviation="2.446"/></filter><radialGradient id="radialGradient3861" cx="32" cy="32" r="29.909" fx="32" fy="32" gradientTransform="matrix(0.97492401,0,0,0.96899749,0.80243164,0.99208034)" gradientUnits="userSpaceOnUse" xlink:href="#linearGradient3865"/><linearGradient id="linearGradient3871" x1="2.091" x2="61.909" y1="31.545" y2="31.545" gradientTransform="matrix(0,1,1,0,0.45454407,-1.98e-6)" gradientUnits="userSpaceOnUse" xlink:href="#linearGradient3773"/></defs><metadata id="metadata2990"/><rect style="fill:url(#linearGradient3815);fill-opacity:1;fill-rule:evenodd;stroke:none" id="rect3012" width="59.818" height="59.455" x="2.091" y="2.273" ry="11.455" transform="matrix(0,1,1,0,0,0)"/><rect id="rect3859" width="58.318" height="57.964" x="2.841" y="3.018" ry="11.167" transform="matrix(0,1,1,0,0,0)" style="fill:url(#radialGradient3861);fill-opacity:1;fill-rule:evenodd;stroke:none"/><path style="fill:url(#linearGradient3871);fill-opacity:1;fill-rule:evenodd;stroke:none" id="rect3821" d="M 13.71875 2.09375 C 7.3729321 2.09375 2.28125 7.1854321 2.28125 13.53125 L 2.28125 50.46875 C 2.28125 56.814568 7.3729321 61.90625 13.71875 61.90625 L 50.28125 61.90625 C 56.627068 61.90625 61.71875 56.814568 61.71875 50.46875 L 61.71875 13.53125 C 61.71875 7.1854321 56.627068 2.09375 50.28125 2.09375 L 13.71875 2.09375 z M 17.6875 8.5625 L 46.3125 8.5625 C 51.28435 8.5625 55.28125 12.5594 55.28125 17.53125 L 55.28125 46.46875 C 55.28125 51.4406 51.28435 55.4375 46.3125 55.4375 L 17.6875 55.4375 C 12.71565 55.4375 8.71875 51.4406 8.71875 46.46875 L 8.71875 17.53125 C 8.71875 12.5594 12.71565 8.5625 17.6875 8.5625 z"/></svg>