<svg xmlns="http://www.w3.org/2000/svg" xmlns:svg="http://www.w3.org/2000/svg" id="svg2985" width="36.25" height="36.25" version="1.1"><metadata id="metadata2991"/><g id="layer1" transform="translate(-2.1902052,-1.209679)"><g id="g3059" transform="translate(-108.75,-56.25)"><g id="g3772" transform="translate(-0.00507263,0.0456652)"><path id="path3853" d="m 358.125,206.25 c 0,117.70569 -105.63282,213.125 -235.9375,213.125 -130.3046832,0 -235.9375,-95.41931 -235.9375,-213.125 0,-117.705687 105.6328168,-213.125 235.9375,-213.125 130.30468,0 235.9375,95.419313 235.9375,213.125 z" transform="matrix(0.07554077,0,0,0.08326624,119.84014,58.358677)" style="fill:#fd9001;fill-opacity:1;fill-rule:nonzero;stroke:none"/><path id="path3762" d="m 35.53125,21.875 -34.375,1.65625 c 2.3146618,7.126403 9.040821,12.28125 16.96875,12.28125 8.523514,0 15.648545,-5.976409 17.40625,-13.9375 z" transform="translate(110.94021,57.479306)" style="fill:#000;fill-opacity:1;fill-rule:nonzero;stroke:none"/><path id="path3061" d="m 131.87771,63.237055 c -0.23024,0.0048 -0.46154,0.05105 -0.6875,0.15625 -0.65098,0.30308 -0.79559,0.817193 -0.46875,1.59375 0.0962,0.228592 0.1875,0.49514 0.1875,0.59375 0,0.296629 -0.18487,0.609759 -0.46875,0.84375 -0.59517,0.490593 -2.38323,1.19788 -3.25,1.28125 -0.28864,0.02776 -0.62255,0.08681 -0.71875,0.125 -0.0962,0.0382 -0.42809,0.12266 -0.75,0.1875 -0.9372,0.188758 -2.77621,0.96318 -3.40625,1.4375 -0.51222,0.385622 -1.00785,1.056161 -1.5,2.0625 -0.70583,1.443282 -1.06605,2.591978 -1.46875,4.65625 -0.0713,0.36561 -0.123,0.783558 -0.125,0.9375 -0.002,0.153941 -0.0694,0.441857 -0.125,0.625 -0.0556,0.183145 -0.1024,0.637114 -0.125,1.03125 -0.0673,1.171416 -0.10094,1.285962 -0.34375,1.5625 -0.25487,0.290275 -0.43802,0.416198 -1.0625,0.46875 l 10.8125,-0.53125 c -0.37823,-0.05501 -0.84084,-0.230957 -1,-0.375 -0.43169,-0.390677 -0.44882,-0.895894 -0.0625,-2.125 l 0.28125,-0.875 0.4375,-0.40625 c 0.58816,-0.513991 1.26962,-0.835041 1.78125,-0.875 0.17054,-0.01332 0.31093,0.01008 0.4375,0.0625 0.30766,0.127435 0.48102,0.390627 0.6875,1.125 0.10023,0.35646 0.2974,0.939921 0.4375,1.3125 0.31842,0.846657 0.30852,1.230221 0.0312,1.59375 -0.26714,0.350222 -0.47923,0.41694 -1.5,0.46875 -0.21849,0.01109 -0.33191,0.015 -0.53125,0.03125 l 9.09375,-0.4375 c -1.15175,0.01894 -2.18423,0.0112 -2.4375,-0.03125 -0.19136,-0.03206 -0.64971,-0.12717 -1.03125,-0.1875 -0.38152,-0.06033 -0.83201,-0.14444 -1,-0.21875 -0.37609,-0.166362 -1.12081,-0.88261 -1.25,-1.1875 -0.1126,-0.26564 -0.13236,-0.935371 -0.0312,-1.28125 0.0393,-0.134446 0.0999,-0.57666 0.15625,-1 0.0564,-0.423336 0.15725,-0.956588 0.21875,-1.1875 0.0641,-0.240936 0.1508,-0.964698 0.1875,-1.6875 0.0976,-1.922509 0.16921,-2.259759 0.53125,-2.40625 0.41485,-0.167857 0.70277,-0.136043 1.03125,0.125 0.29701,0.236037 0.56037,0.272673 0.78125,0.09375 0.25342,-0.205278 0.3118,-0.432899 0.375,-1.28125 0.0698,-0.936377 0.12519,-1.088618 0.71875,-2.0625 0.2384,-0.391154 0.58329,-0.982586 0.75,-1.3125 0.3002,-0.594101 0.29462,-0.587366 0.1875,-0.84375 -0.13348,-0.319473 -0.42016,-0.44508 -1.15625,-0.53125 -0.81624,-0.09556 -1.1165,-0.189125 -1.90625,-0.625 -0.4041,-0.223025 -0.92535,-0.47206 -1.15625,-0.53125 -0.23092,-0.05919 -0.58518,-0.17169 -0.8125,-0.25 -0.27529,-0.09483 -0.51976,-0.129762 -0.75,-0.125 z m -9.25,10.75 c 0.20779,-0.0062 0.4318,0.02594 0.625,0.125 0.40602,0.208175 0.70764,0.595862 0.84375,1.0625 0.1026,0.351405 0.1026,0.629895 0.0625,2.28125 -0.0252,1.039103 -0.0853,2.013124 -0.125,2.15625 -0.086,0.309854 -0.35085,0.639476 -0.625,0.78125 -0.41441,0.214304 -1.09607,0.05449 -1.375,-0.34375 -0.0554,-0.07903 -0.32947,-0.867806 -0.625,-1.75 -0.66726,-1.991909 -0.72401,-2.38346 -0.40625,-3.0625 0.35929,-0.767794 1.00161,-1.231387 1.625,-1.25 z" style="fill:#000;fill-opacity:1;stroke:none"/></g></g></g></svg>